<svg xmlns="http://www.w3.org/2000/svg" viewBox="0 0 220 56" fill="none">
  <defs>
    <linearGradient id="tile" x1="6" y1="6" x2="50" y2="50" gradientUnits="userSpaceOnUse">
      <stop offset="0%" stop-color="#172033"/>
      <stop offset="100%" stop-color="#0a1020"/>
    </linearGradient>
    <linearGradient id="stroke" x1="10" y1="10" x2="46" y2="46" gradientUnits="userSpaceOnUse">
      <stop offset="0%" stop-color="#67e8f9"/>
      <stop offset="100%" stop-color="#f59e0b"/>
    </linearGradient>
    <linearGradient id="bar" x1="14" y1="0" x2="40" y2="0" gradientUnits="userSpaceOnUse">
      <stop offset="0%" stop-color="#67e8f9"/>
      <stop offset="100%" stop-color="#22c55e"/>
    </linearGradient>
    <linearGradient id="barWarm" x1="18" y1="0" x2="41" y2="0" gradientUnits="userSpaceOnUse">
      <stop offset="0%" stop-color="#f59e0b"/>
      <stop offset="100%" stop-color="#fb7185"/>
    </linearGradient>
    <linearGradient id="word" x1="62" y1="18" x2="210" y2="40" gradientUnits="userSpaceOnUse">
      <stop offset="0%" stop-color="#f8fafc"/>
      <stop offset="55%" stop-color="#cbd5e1"/>
      <stop offset="100%" stop-color="#67e8f9"/>
    </linearGradient>
  </defs>

  <rect x="0" y="4" width="48" height="48" rx="14" fill="url(#tile)"/>
  <rect x="0.75" y="4.75" width="46.5" height="46.5" rx="13.25" stroke="url(#stroke)" stroke-opacity="0.5" stroke-width="1.5"/>
  <path d="M16 14.5H32L16 30.5H32L16 46.5" stroke="url(#stroke)" stroke-width="4" stroke-linecap="round" stroke-linejoin="round"/>
  <rect x="14" y="18" width="26" height="3.5" rx="1.75" fill="url(#bar)"/>
  <rect x="18" y="27" width="23" height="3.5" rx="1.75" fill="url(#barWarm)"/>
  <rect x="14" y="36" width="18" height="3.5" rx="1.75" fill="url(#bar)"/>
  <circle cx="33.5" cy="37.75" r="4.25" fill="#f8fafc"/>
  <circle cx="39.5" cy="16.5" r="2.5" fill="#f59e0b"/>

  <text
    x="61"
    y="37"
    font-family="'Avenir Next', 'Segoe UI', sans-serif"
    font-size="29"
    font-weight="700"
    letter-spacing="-1.2"
    fill="url(#word)"
  >enhancr</text>
</svg>
