<svg xmlns="http://www.w3.org/2000/svg" viewBox="0 0 1200 630" fill="none">
  <defs>
    <linearGradient id="bg" x1="0" y1="0" x2="1200" y2="630" gradientUnits="userSpaceOnUse">
      <stop offset="0%" stop-color="#07111f"/>
      <stop offset="100%" stop-color="#101827"/>
    </linearGradient>
    <radialGradient id="glowA" cx="0" cy="0" r="1" gradientUnits="userSpaceOnUse" gradientTransform="translate(250 180) rotate(37) scale(370 290)">
      <stop offset="0%" stop-color="#22d3ee" stop-opacity="0.18"/>
      <stop offset="100%" stop-color="#22d3ee" stop-opacity="0"/>
    </radialGradient>
    <radialGradient id="glowB" cx="0" cy="0" r="1" gradientUnits="userSpaceOnUse" gradientTransform="translate(950 470) rotate(12) scale(360 250)">
      <stop offset="0%" stop-color="#f59e0b" stop-opacity="0.16"/>
      <stop offset="100%" stop-color="#f59e0b" stop-opacity="0"/>
    </radialGradient>
    <linearGradient id="tile" x1="100" y1="160" x2="320" y2="380" gradientUnits="userSpaceOnUse">
      <stop offset="0%" stop-color="#172033"/>
      <stop offset="100%" stop-color="#0a1020"/>
    </linearGradient>
    <linearGradient id="stroke" x1="130" y1="170" x2="290" y2="360" gradientUnits="userSpaceOnUse">
      <stop offset="0%" stop-color="#67e8f9"/>
      <stop offset="100%" stop-color="#f59e0b"/>
    </linearGradient>
    <linearGradient id="bar" x1="150" y1="0" x2="275" y2="0" gradientUnits="userSpaceOnUse">
      <stop offset="0%" stop-color="#67e8f9"/>
      <stop offset="100%" stop-color="#22c55e"/>
    </linearGradient>
    <linearGradient id="barWarm" x1="175" y1="0" x2="287" y2="0" gradientUnits="userSpaceOnUse">
      <stop offset="0%" stop-color="#f59e0b"/>
      <stop offset="100%" stop-color="#fb7185"/>
    </linearGradient>
    <linearGradient id="word" x1="380" y1="210" x2="930" y2="390" gradientUnits="userSpaceOnUse">
      <stop offset="0%" stop-color="#f8fafc"/>
      <stop offset="55%" stop-color="#cbd5e1"/>
      <stop offset="100%" stop-color="#67e8f9"/>
    </linearGradient>
  </defs>

  <rect width="1200" height="630" fill="url(#bg)"/>
  <rect x="28" y="28" width="1144" height="574" rx="36" stroke="#ffffff" stroke-opacity="0.12"/>
  <ellipse cx="250" cy="180" rx="370" ry="290" fill="url(#glowA)"/>
  <ellipse cx="950" cy="470" rx="360" ry="250" fill="url(#glowB)"/>

  <g opacity="0.18" stroke="#94a3b8">
    <path d="M70 130H1130"/>
    <path d="M70 500H1130"/>
    <path d="M160 70V560"/>
    <path d="M1040 70V560"/>
  </g>

  <rect x="110" y="175" width="210" height="210" rx="56" fill="url(#tile)"/>
  <rect x="113" y="178" width="204" height="204" rx="53" stroke="url(#stroke)" stroke-opacity="0.55" stroke-width="3"/>
  <path d="M170 214H238L170 282H238L170 350" stroke="url(#stroke)" stroke-width="16" stroke-linecap="round" stroke-linejoin="round"/>
  <rect x="162" y="228" width="118" height="15" rx="7.5" fill="url(#bar)"/>
  <rect x="180" y="270" width="108" height="15" rx="7.5" fill="url(#barWarm)"/>
  <rect x="162" y="312" width="78" height="15" rx="7.5" fill="url(#bar)"/>
  <circle cx="247" cy="319.5" r="18" fill="#f8fafc"/>
  <circle cx="286" cy="211" r="10" fill="#f59e0b"/>

  <text
    x="375"
    y="300"
    font-family="'Avenir Next', 'Segoe UI', sans-serif"
    font-size="116"
    font-weight="700"
    letter-spacing="-5"
    fill="url(#word)"
  >enhancr</text>

  <text
    x="378"
    y="360"
    font-family="'Avenir Next', 'Segoe UI', sans-serif"
    font-size="30"
    font-weight="500"
    fill="#cbd5e1"
    fill-opacity="0.9"
  >Local image editing, conversion, reduction, and splitting in the browser.</text>

  <g transform="translate(380 415)">
    <rect x="0" y="0" width="138" height="42" rx="21" fill="#0f172a" stroke="#155e75" stroke-opacity="0.7"/>
    <text x="69" y="27" font-family="'Avenir Next', 'Segoe UI', sans-serif" font-size="17" font-weight="600" fill="#67e8f9" text-anchor="middle">Convert</text>
    <rect x="154" y="0" width="126" height="42" rx="21" fill="#0f172a" stroke="#a16207" stroke-opacity="0.7"/>
    <text x="217" y="27" font-family="'Avenir Next', 'Segoe UI', sans-serif" font-size="17" font-weight="600" fill="#fbbf24" text-anchor="middle">Reduce</text>
    <rect x="296" y="0" width="106" height="42" rx="21" fill="#0f172a" stroke="#0f766e" stroke-opacity="0.7"/>
    <text x="349" y="27" font-family="'Avenir Next', 'Segoe UI', sans-serif" font-size="17" font-weight="600" fill="#5eead4" text-anchor="middle">Split</text>
    <rect x="418" y="0" width="116" height="42" rx="21" fill="#0f172a" stroke="#334155" stroke-opacity="0.9"/>
    <text x="476" y="27" font-family="'Avenir Next', 'Segoe UI', sans-serif" font-size="17" font-weight="600" fill="#e2e8f0" text-anchor="middle">Enhance</text>
  </g>
</svg>
